<?xml version="1.0" encoding="UTF-8"?>
<svg xmlns="http://www.w3.org/2000/svg" xmlns:xlink="http://www.w3.org/1999/xlink" width="99pt" height="99pt" viewBox="0 0 99 99" version="1.1">
<defs>
<linearGradient id="linear0" gradientUnits="userSpaceOnUse" x1="8.393" y1="1.106" x2="11.125" y2="18.354" gradientTransform="matrix(3.32997,0,0,3.3,-3.32997,-3.3)">
<stop offset="0.012" style="stop-color:rgb(0%,71.764706%,94.117647%);stop-opacity:1;"/>
<stop offset="0.339" style="stop-color:rgb(0%,61.568627%,89.803922%);stop-opacity:1;"/>
<stop offset="0.755" style="stop-color:rgb(0%,50.980392%,85.098039%);stop-opacity:1;"/>
<stop offset="1" style="stop-color:rgb(0%,47.058824%,83.137255%);stop-opacity:1;"/>
</linearGradient>
<linearGradient id="linear1" gradientUnits="userSpaceOnUse" x1="14.379" y1="26.645" x2="29.546" y2="17.889" gradientTransform="matrix(3.32997,0,0,3.3,-3.32997,-3.3)">
<stop offset="0" style="stop-color:rgb(0%,47.058824%,83.137255%);stop-opacity:1;"/>
<stop offset="0.37" style="stop-color:rgb(0%,47.843137%,83.529412%);stop-opacity:1;"/>
<stop offset="0.573" style="stop-color:rgb(0%,50.980392%,85.098039%);stop-opacity:1;"/>
<stop offset="0.735" style="stop-color:rgb(0%,56.470588%,87.45098%);stop-opacity:1;"/>
<stop offset="0.875" style="stop-color:rgb(0%,63.921569%,90.588235%);stop-opacity:1;"/>
<stop offset="1" style="stop-color:rgb(0%,73.72549%,94.901961%);stop-opacity:1;"/>
</linearGradient>
<filter id="alpha" filterUnits="objectBoundingBox" x="0%" y="0%" width="100%" height="100%">
  <feColorMatrix type="matrix" in="SourceGraphic" values="0 0 0 0 1 0 0 0 0 1 0 0 0 0 1 0 0 0 1 0"/>
</filter>
<mask id="mask0">
  <g filter="url(#alpha)">
<rect x="0" y="0" width="99" height="99" style="fill:rgb(0%,0%,0%);fill-opacity:0.0509804;stroke:none;"/>
  </g>
</mask>
<clipPath id="clip1">
  <rect width="99" height="99"/>
</clipPath>
<g id="surface6" clip-path="url(#clip1)">
<path style=" stroke:none;fill-rule:evenodd;fill:rgb(0%,0%,0%);fill-opacity:1;" d="M 0.105469 31.273438 C 1.367188 46.410156 14.234375 58 29.558594 57.796875 C 44.886719 57.59375 57.4375 45.671875 58.289062 30.507812 C 59.144531 15.339844 48.003906 2.109375 32.796875 0.222656 C 17.761719 5.207031 5.769531 16.597656 0.105469 31.273438 Z M 0.105469 31.273438 "/>
</g>
<mask id="mask1">
  <g filter="url(#alpha)">
<rect x="0" y="0" width="99" height="99" style="fill:rgb(0%,0%,0%);fill-opacity:0.0509804;stroke:none;"/>
  </g>
</mask>
<clipPath id="clip2">
  <rect width="99" height="99"/>
</clipPath>
<g id="surface9" clip-path="url(#clip2)">
<path style=" stroke:none;fill-rule:evenodd;fill:rgb(0%,0%,0%);fill-opacity:1;" d="M 98.90625 68.113281 C 97.847656 52.777344 84.859375 40.945312 69.351562 41.179688 C 53.839844 41.417969 41.230469 53.640625 40.648438 69.003906 C 40.066406 84.363281 51.714844 97.492188 67.164062 98.882812 C 81.777344 93.722656 93.382812 82.476562 98.90625 68.109375 Z M 98.90625 68.113281 "/>
</g>
<mask id="mask2">
  <g filter="url(#alpha)">
<rect x="0" y="0" width="99" height="99" style="fill:rgb(0%,0%,0%);fill-opacity:0.101961;stroke:none;"/>
  </g>
</mask>
<clipPath id="clip3">
  <rect width="99" height="99"/>
</clipPath>
<g id="surface12" clip-path="url(#clip3)">
<path style=" stroke:none;fill-rule:evenodd;fill:rgb(0%,0%,0%);fill-opacity:1;" d="M 1.472656 37.859375 C 5.695312 50.667969 18.292969 58.878906 31.832031 57.65625 C 45.371094 56.433594 56.257812 46.097656 58.074219 32.746094 C 59.890625 19.394531 52.15625 6.570312 39.425781 1.835938 C 20.867188 5.667969 6.136719 19.648438 1.472656 37.859375 Z M 1.472656 37.859375 "/>
</g>
<mask id="mask3">
  <g filter="url(#alpha)">
<rect x="0" y="0" width="99" height="99" style="fill:rgb(0%,0%,0%);fill-opacity:0.101961;stroke:none;"/>
  </g>
</mask>
<clipPath id="clip4">
  <rect width="99" height="99"/>
</clipPath>
<g id="surface15" clip-path="url(#clip4)">
<path style=" stroke:none;fill-rule:evenodd;fill:rgb(0%,0%,0%);fill-opacity:1;" d="M 97.582031 61.339844 C 93.417969 48.375 80.691406 40.042969 67.023438 41.335938 C 53.355469 42.628906 42.445312 53.191406 40.832031 66.707031 C 39.214844 80.21875 47.328125 93.015625 60.3125 97.4375 C 78.628906 93.367188 93.054688 79.394531 97.582031 61.339844 Z M 97.582031 61.339844 "/>
</g>
<mask id="mask4">
  <g filter="url(#alpha)">
<rect x="0" y="0" width="99" height="99" style="fill:rgb(0%,0%,0%);fill-opacity:0.101961;stroke:none;"/>
  </g>
</mask>
<clipPath id="clip5">
  <rect width="99" height="99"/>
</clipPath>
<g id="surface18" clip-path="url(#clip5)">
<path style=" stroke:none;fill-rule:evenodd;fill:rgb(0%,0%,0%);fill-opacity:1;" d="M 2.542969 40.59375 C 7.757812 52.238281 20.058594 59.121094 32.8125 57.535156 C 45.570312 55.949219 55.769531 46.269531 57.921875 33.707031 C 60.074219 21.148438 53.664062 8.671875 42.152344 3.007812 C 22.300781 6.066406 6.488281 21.074219 2.542969 40.59375 Z M 2.542969 40.59375 "/>
</g>
<mask id="mask5">
  <g filter="url(#alpha)">
<rect x="0" y="0" width="99" height="99" style="fill:rgb(0%,0%,0%);fill-opacity:0.101961;stroke:none;"/>
  </g>
</mask>
<clipPath id="clip6">
  <rect width="99" height="99"/>
</clipPath>
<g id="surface21" clip-path="url(#clip6)">
<path style=" stroke:none;fill-rule:evenodd;fill:rgb(0%,0%,0%);fill-opacity:1;" d="M 96.503906 58.550781 C 91.316406 46.765625 78.886719 39.796875 66.019531 41.457031 C 53.152344 43.117188 42.9375 53.003906 40.964844 65.714844 C 38.992188 78.425781 45.730469 90.898438 57.5 96.316406 C 77.171875 93.003906 92.707031 77.960938 96.503906 58.550781 Z M 96.503906 58.550781 "/>
</g>
<linearGradient id="linear2" gradientUnits="userSpaceOnUse" x1="10.45" y1="6.689" x2="24.291" y2="30.662001" gradientTransform="matrix(3.32997,0,0,3.3,-3.32997,-3.3)">
<stop offset="0" style="stop-color:rgb(0%,71.764706%,94.117647%);stop-opacity:1;"/>
<stop offset="1" style="stop-color:rgb(0%,48.627451%,75.686275%);stop-opacity:1;"/>
</linearGradient>
</defs>
<g id="surface1">
<path style=" stroke:none;fill-rule:nonzero;fill:url(#linear0);" d="M 58.335938 28.808594 C 58.335938 44.71875 45.277344 57.617188 29.167969 57.617188 C 13.058594 57.617188 0 44.71875 0 28.808594 C 0 12.898438 13.058594 0 29.167969 0 C 45.277344 0 58.335938 12.898438 58.335938 28.808594 "/>
<path style=" stroke:none;fill-rule:nonzero;fill:url(#linear1);" d="M 98.984375 70.179688 C 98.984375 86.097656 85.921875 99 69.804688 99 C 53.691406 99 40.628906 86.097656 40.628906 70.179688 C 40.628906 54.265625 53.691406 41.363281 69.804688 41.363281 C 85.921875 41.363281 98.984375 54.265625 98.984375 70.179688 "/>
<use xlink:href="#surface6" mask="url(#mask0)"/>
<use xlink:href="#surface9" mask="url(#mask1)"/>
<use xlink:href="#surface12" mask="url(#mask2)"/>
<use xlink:href="#surface15" mask="url(#mask3)"/>
<use xlink:href="#surface18" mask="url(#mask4)"/>
<use xlink:href="#surface21" mask="url(#mask5)"/>
<path style=" stroke:none;fill-rule:nonzero;fill:url(#linear2);" d="M 95.691406 49.714844 C 95.691406 74.914062 75.011719 95.34375 49.496094 95.34375 C 23.984375 95.34375 3.300781 74.914062 3.300781 49.714844 C 3.300781 24.515625 23.984375 4.085938 49.496094 4.085938 C 75.011719 4.085938 95.691406 24.515625 95.691406 49.714844 "/>
<path style=" stroke:none;fill-rule:evenodd;fill:rgb(100%,100%,100%);fill-opacity:1;" d="M 36.507812 48.128906 C 34.640625 46.914062 33.082031 45.285156 31.953125 43.371094 C 30.867188 41.351562 30.328125 39.085938 30.394531 36.796875 C 30.3125 33.890625 31.3125 31.054688 33.207031 28.835938 C 35.171875 26.605469 37.699219 24.933594 40.53125 23.984375 C 43.613281 22.90625 46.855469 22.363281 50.121094 22.382812 C 52.257812 22.363281 54.394531 22.527344 56.503906 22.867188 C 58.011719 23.101562 59.496094 23.480469 60.929688 24 C 62.246094 24.441406 63.433594 25.195312 64.390625 26.191406 C 65.097656 27.011719 65.476562 28.0625 65.460938 29.140625 C 65.511719 30.269531 65.105469 31.375 64.335938 32.210938 C 63.605469 32.984375 62.574219 33.40625 61.507812 33.378906 C 60.78125 33.375 60.066406 33.214844 59.40625 32.910156 C 57.78125 32.191406 56.109375 31.585938 54.402344 31.097656 C 52.828125 30.683594 51.207031 30.484375 49.578125 30.5 C 47.460938 30.425781 45.363281 30.957031 43.539062 32.03125 C 41.972656 32.976562 41.050781 34.691406 41.128906 36.503906 C 41.117188 37.675781 41.566406 38.800781 42.378906 39.648438 C 43.347656 40.644531 44.492188 41.457031 45.753906 42.042969 C 47.167969 42.738281 49.277344 43.660156 52.082031 44.808594 C 52.390625 44.90625 52.695312 45.023438 52.988281 45.167969 C 55.722656 46.238281 58.347656 47.574219 60.820312 49.15625 C 62.769531 50.417969 64.417969 52.09375 65.640625 54.0625 C 66.84375 56.128906 67.445312 58.484375 67.382812 60.871094 C 67.484375 63.792969 66.636719 66.671875 64.972656 69.082031 C 63.273438 71.367188 60.925781 73.09375 58.226562 74.042969 C 54.976562 75.191406 51.542969 75.746094 48.089844 75.679688 C 43.347656 75.84375 38.628906 74.957031 34.273438 73.089844 C 33.164062 72.597656 32.1875 71.84375 31.429688 70.898438 C 30.804688 70.027344 30.480469 68.980469 30.503906 67.914062 C 30.441406 66.773438 30.886719 65.664062 31.722656 64.878906 C 32.585938 64.128906 33.707031 63.734375 34.855469 63.78125 C 36.132812 63.800781 37.390625 64.121094 38.519531 64.714844 C 39.921875 65.410156 41.027344 65.933594 41.835938 66.28125 C 42.761719 66.664062 43.722656 66.964844 44.703125 67.179688 C 45.910156 67.441406 47.144531 67.566406 48.382812 67.554688 C 50.570312 67.710938 52.746094 67.132812 54.566406 65.921875 C 55.945312 64.847656 56.722656 63.183594 56.648438 61.445312 C 56.652344 60.230469 56.183594 59.0625 55.34375 58.179688 C 54.234375 57.042969 52.933594 56.105469 51.5 55.40625 C 49.808594 54.523438 47.425781 53.445312 44.355469 52.171875 C 41.609375 51.089844 38.980469 49.734375 36.507812 48.128906 "/>
</g>
</svg>
